<svg width="33" height="33" viewBox="0 0 33 33" fill="none" xmlns="http://www.w3.org/2000/svg">
<path d="M16.5 3.30005C15.5873 3.30005 14.85 4.03739 14.85 4.95005V6.60005H13.2C12.5348 6.60005 11.9315 7.00224 11.6737 7.62099C11.4159 8.23974 11.5603 8.94614 12.0295 9.42052L15.3295 12.7205C15.974 13.365 17.0207 13.365 17.6653 12.7205L20.9653 9.42052C21.4396 8.94614 21.5789 8.23974 21.321 7.62099C21.0632 7.00224 20.4651 6.60005 19.8 6.60005H18.15V4.95005C18.15 4.03739 17.4126 3.30005 16.5 3.30005ZM20.9653 23.5847L17.6653 20.2847C17.0207 19.6402 15.974 19.6402 15.3295 20.2847L12.0295 23.5847C11.5551 24.0591 11.4159 24.7655 11.6737 25.3843C11.9315 26.003 12.5348 26.4 13.2 26.4H14.85V28.05C14.85 28.9627 15.5873 29.7 16.5 29.7C17.4126 29.7 18.15 28.9627 18.15 28.05V26.4H19.8C20.4651 26.4 21.0684 25.9979 21.3262 25.3791C21.584 24.7604 21.4396 24.054 20.9704 23.5796L20.9653 23.5847ZM28.05 14.85H26.4V13.2C26.4 12.5349 25.9978 11.9316 25.379 11.6738C24.7603 11.416 24.0539 11.5604 23.5795 12.0296L20.2795 15.3296C19.635 15.9741 19.635 17.0208 20.2795 17.6654L23.5795 20.9654C24.0539 21.4397 24.7603 21.579 25.379 21.3211C25.9978 21.0633 26.4 20.4652 26.4 19.8V18.15H28.05C28.9626 18.15 29.7 17.4127 29.7 16.5C29.7 15.5874 28.9626 14.85 28.05 14.85ZM12.7153 17.6654C13.3598 17.0208 13.3598 15.9741 12.7153 15.3296L9.41526 12.0296C8.94089 11.5552 8.23448 11.416 7.61573 11.6738C6.99698 11.9316 6.59995 12.5349 6.59995 13.2V14.85H4.94995C4.0373 14.85 3.29995 15.5874 3.29995 16.5C3.29995 17.4127 4.0373 18.15 4.94995 18.15H6.59995V19.8C6.59995 20.4652 7.00214 21.0685 7.62089 21.3263C8.23964 21.5841 8.94605 21.4397 9.42042 20.9705L12.7204 17.6705L12.7153 17.6654ZM16.5 14.85C15.5873 14.85 14.85 15.5874 14.85 16.5C14.85 17.4127 15.5873 18.15 16.5 18.15C17.4126 18.15 18.15 17.4127 18.15 16.5C18.15 15.5874 17.4126 14.85 16.5 14.85Z" fill="#F175AD"/>
</svg>
