<?xml version="1.0" encoding="utf-8"?>
<!-- Generator: Adobe Illustrator 25.0.1, SVG Export Plug-In . SVG Version: 6.00 Build 0)  -->
<svg version="1.1" id="Layer_1" xmlns="http://www.w3.org/2000/svg" xmlns:xlink="http://www.w3.org/1999/xlink" x="0px" y="0px"
	 viewBox="0 0 314 75" style="enable-background:new 0 0 314 75;" xml:space="preserve">
<style type="text/css">
	.st0{fill:url(#Icon_awesome-linkedin_1_);}
</style>
<linearGradient id="Icon_awesome-linkedin_1_" gradientUnits="userSpaceOnUse" x1="-518.5411" y1="417.4986" x2="-518.5411" y2="416.4986" gradientTransform="matrix(61.1561 0 0 -61.159 31868.9336 25541.0977)">
	<stop  offset="0" style="stop-color:#EC0B8C"/>
	<stop  offset="1" style="stop-color:#811151"/>
</linearGradient>
<path id="Icon_awesome-linkedin" class="st0" d="M183.21,7.3h-52.43c-2.42,0.02-4.37,1.99-4.35,4.41v52.34
	c-0.01,2.42,1.94,4.39,4.35,4.41h52.43c2.42-0.02,4.37-1.99,4.37-4.41V11.71C187.58,9.29,185.63,7.32,183.21,7.3z M144.91,59.72
	h-9.07V30.54h9.08v29.19H144.91z M140.37,26.55c-2.9,0-5.26-2.35-5.26-5.26s2.35-5.26,5.26-5.26c2.9,0,5.26,2.35,5.26,5.26
	C145.63,24.2,143.28,26.55,140.37,26.55z M178.88,59.72h-9.06v-14.2c0-3.38-0.07-7.74-4.71-7.74c-4.72,0-5.45,3.69-5.45,7.49v14.45
	h-9.07V30.54h8.7v3.99h0.12c1.78-3.03,5.08-4.84,8.59-4.71c9.17,0,10.88,6.05,10.88,13.91L178.88,59.72z"/>
</svg>
