<svg xmlns="http://www.w3.org/2000/svg" width="1046.752" height="294.86" viewBox="0 0 1046.752 294.86">
  <g id="Group_19865" data-name="Group 19865" transform="translate(-20 -106)">
    <g id="Group_2210" data-name="Group 2210" transform="translate(20 105.999)">
      <g id="Layer_1" transform="translate(0 0)">
        <g id="Group_19983" data-name="Group 19983" transform="translate(184.454)">
          <path id="Path_5722" data-name="Path 5722" d="M240.021,157.47l1.84,3.375,7.363,14.419h0l11.658,23.929-25.156-9.817h-.307l-15.953-5.829-3.988-1.535c-32.213,20.861-75.777,17.18-103.693-11.045-32.519-32.519-32.519-85.286,0-117.5,32.519-32.519,85.286-32.519,117.5,0C257.814,81.387,261.189,125.257,240.021,157.47ZM99.206,40.278a101.1,101.1,0,0,0,121.18,159.528l71.481,27.917L259.041,160.23a101.315,101.315,0,0,0-17.18-120.26C202.593,1.009,138.475,1.009,99.206,40.278Z" transform="translate(-69.524 -10.787)" fill="#a60008"/>
          <g id="Group_1997" data-name="Group 1997" transform="translate(43.795 43.295)">
            <path id="Path_5723" data-name="Path 5723" d="M141.169,24.9a57.369,57.369,0,1,0,57.369,57.369C198.845,50.67,173.075,24.9,141.169,24.9Zm0,94.183a36.508,36.508,0,1,1,36.508-36.508c.307,19.941-16.26,36.508-36.508,36.508Z" transform="translate(-83.8 -24.9)" fill="#a60008"/>
            <circle id="Ellipse_136" data-name="Ellipse 136" cx="14.725" cy="14.725" r="14.725" transform="translate(42.643 42.643)" fill="#a60008"/>
          </g>
        </g>
        <g id="Group_1998" data-name="Group 1998" transform="translate(0 11.696)">
          <path id="Path_5724" data-name="Path 5724" d="M9.4,160.937V146.211l23.316-3.988v25.156H144.692V107.863H37.318c-9.817,0-16.566-2.147-19.634-6.443Q14,96.358,14,83.934V35.461c0-8.283,1.841-13.805,5.215-16.566s9.51-4.3,17.793-4.3H143.158c10.124,0,16.566,1.535,19.328,4.909s3.988,10.124,3.988,20.554V51.414L143.159,55.1V35.154H37.318V86.694H145.306c9.817,0,16.26,2.148,19.941,6.443,2.761,3.375,3.988,9.2,3.988,17.487a69.335,69.335,0,0,1-.307,7.976,74.752,74.752,0,0,0-.307,8.283v40.189c0,7.363-1.841,12.885-5.829,15.953s-9.509,4.909-17.18,4.909H32.409q-15.186,0-19.328-5.522C10.627,178.73,9.4,171.674,9.4,160.937Z" transform="translate(-9.4 -14.6)"/>
          <path id="Path_5725" data-name="Path 5725" d="M147.3,167.379V14.6h23.316V167.379H282.9V14.6h23.316V167.379c0,7.363-1.841,12.885-5.829,15.953-3.988,3.375-9.817,4.909-17.487,4.909H170.309c-8.283,0-14.112-1.227-17.487-3.988C149.141,181.185,147.3,175.356,147.3,167.379Z" transform="translate(275.757 -14.6)"/>
          <path id="Path_5726" data-name="Path 5726" d="M237.216,14.6V188.242H213.9V14.6Z" transform="translate(413.477 -14.6)"/>
          <path id="Path_5727" data-name="Path 5727" d="M399.609,188.242H367.4L297.45,117.68H259.716v70.563H236.4V14.6H358.194c15.033,0,24.849,3.988,29.758,11.965,3.681,6.136,5.829,16.873,5.829,32.519V86.694c0,9.817-2.761,17.18-8.59,22.089-6.75,5.829-19.021,8.9-37.121,8.9H329.662ZM348.683,35.461H259.716V96.818h90.808c8.283,0,13.806-1.84,16.873-5.215,2.455-2.761,3.375-7.363,3.375-13.805V62.459c0-11.658-.92-18.714-2.454-21.168C366.17,37.3,359.421,35.461,348.683,35.461Z" transform="translate(460.003 -14.6)"/>
          <path id="Path_5728" data-name="Path 5728" d="M448.937,14.6V35.461H325.916V88.535h72.4V109.4h-72.4v58.29H449.857v20.861H302.6V14.6Z" transform="translate(596.895 -14.6)"/>
        </g>
        <g id="Group_1999" data-name="Group 1999" transform="translate(208 235.036)">
          <path id="Path_5729" data-name="Path 5729" d="M77.2,140.475l4.6-10.124a33.469,33.469,0,0,0,19.019,6.136c7.976,0,11.045-2.761,11.045-6.136,0-10.738-33.746-3.375-33.746-24.849,0-9.817,7.974-18.1,24.236-18.1,7.363,0,14.725,1.841,19.941,5.216l-3.988,10.123a33.47,33.47,0,0,0-15.953-4.6c-7.976,0-11.045,3.068-11.045,6.749,0,10.738,33.746,3.375,33.746,24.543,0,9.817-7.976,17.794-24.543,17.794C91.619,147.224,82.416,144.463,77.2,140.475Z" transform="translate(-77.2 -87.401)"/>
          <path id="Path_5730" data-name="Path 5730" d="M100.1,117.158c0-17.18,13.5-29.758,31.6-29.758s31.6,12.58,31.6,29.758-13.5,29.758-31.6,29.758C113.6,147.223,100.1,134.338,100.1,117.158Zm49.7,0c0-11.045-7.67-18.407-18.1-18.407s-18.1,7.668-18.1,18.407c0,11.045,7.67,18.407,18.1,18.407C142.13,135.872,149.8,128.2,149.8,117.158Z" transform="translate(-29.846 -87.4)"/>
          <path id="Path_5731" data-name="Path 5731" d="M129.4,87.7h13.5v46.938h29.144v11.045H129.707Z" transform="translate(30.742 -86.78)"/>
          <path id="Path_5732" data-name="Path 5732" d="M150.6,120.219V87.7h13.5v31.906c0,11.045,4.909,15.646,12.885,15.646,8.283,0,12.885-4.6,12.885-15.646V87.7h13.192v32.519c0,16.873-9.817,26.384-26.077,26.384C160.417,146.6,150.6,137.093,150.6,120.219Z" transform="translate(74.58 -86.78)"/>
          <path id="Path_5733" data-name="Path 5733" d="M193.407,98.745H175V87.7h50.313V98.745H206.906v46.938h-13.5Z" transform="translate(125.036 -86.78)"/>
          <path id="Path_5734" data-name="Path 5734" d="M199.1,87.7h13.5v57.983H199.1Z" transform="translate(174.871 -86.78)"/>
          <path id="Path_5735" data-name="Path 5735" d="M212.1,117.158c0-17.18,13.5-29.758,31.6-29.758s31.6,12.58,31.6,29.758-13.5,29.758-31.6,29.758C225.6,147.223,212.1,134.338,212.1,117.158Zm49.7,0c0-11.045-7.669-18.407-18.1-18.407s-18.1,7.668-18.1,18.407c0,11.045,7.67,18.407,18.1,18.407C254.13,135.872,261.8,128.2,261.8,117.158Z" transform="translate(201.753 -87.4)"/>
          <path id="Path_5736" data-name="Path 5736" d="M294.474,87.7v57.983H283.429l-28.838-34.973v34.973H241.4V87.7h11.045l28.838,34.974V87.7Z" transform="translate(262.342 -86.78)"/>
          <path id="Path_5737" data-name="Path 5737" d="M267.1,140.475l4.6-10.124a33.468,33.468,0,0,0,19.019,6.136c7.974,0,11.045-2.761,11.045-6.136,0-10.738-33.746-3.375-33.746-24.849,0-9.817,7.974-18.1,24.235-18.1,7.364,0,14.726,1.841,19.942,5.216l-3.988,10.123a33.467,33.467,0,0,0-15.953-4.6c-7.974,0-11.045,3.068-11.045,6.749,0,10.738,33.747,3.375,33.747,24.543,0,9.817-7.976,17.794-24.543,17.794C281.519,147.224,272.315,144.463,267.1,140.475Z" transform="translate(315.486 -87.401)"/>
        </g>
      </g>
      <g id="Group_2045" data-name="Group 2045" transform="translate(845.09 232.179)">
        <path id="Path_5738" data-name="Path 5738" d="M369.028,24.434a8.834,8.834,0,0,1-3.706-.758,9.29,9.29,0,0,1-5.054-5.054,9.063,9.063,0,0,1-.674-3.706,8.833,8.833,0,0,1,.758-3.706,10.608,10.608,0,0,1,2.021-3.032A9.674,9.674,0,0,1,369.2,5.4a11.2,11.2,0,0,1,3.788.674,9.291,9.291,0,0,1,5.054,5.054,9.064,9.064,0,0,1,.674,3.706,9.427,9.427,0,0,1-5.81,8.843,9.083,9.083,0,0,1-3.875.758Zm0-1.684a7.22,7.22,0,0,0,3.032-.59,7.053,7.053,0,0,0,2.443-1.684,6.843,6.843,0,0,0,1.6-2.443,7.221,7.221,0,0,0,.59-3.032,7.221,7.221,0,0,0-.59-3.032,6.843,6.843,0,0,0-1.6-2.443,6.515,6.515,0,0,0-2.358-1.6,7.353,7.353,0,0,0-3.116-.59,7.219,7.219,0,0,0-3.032.59,7.051,7.051,0,0,0-2.443,1.684,6.839,6.839,0,0,0-1.6,2.441,8.827,8.827,0,0,0-.59,3.032,7.219,7.219,0,0,0,.59,3.032,8.187,8.187,0,0,0,1.6,2.443A8.412,8.412,0,0,0,366,22.242a11.414,11.414,0,0,0,3.032.507ZM364.9,20.223V9.695h4.548a5.184,5.184,0,0,1,3.369,1.011A3.243,3.243,0,0,1,374,13.4a3.263,3.263,0,0,1-1.179,2.7,5.021,5.021,0,0,1-3.369.927H367.68v3.2Zm2.779-5.138h1.6a2.41,2.41,0,0,0,1.432-.421,1.53,1.53,0,0,0,.505-1.179,1.414,1.414,0,0,0-.505-1.179,2.41,2.41,0,0,0-1.432-.421h-1.6Zm3.874,5.138-2.611-3.959h2.779l2.611,3.959Z" transform="translate(-359.591 -5.399)"/>
      </g>
    </g>
  </g>
</svg>
