<svg xmlns="http://www.w3.org/2000/svg" width="856.26" height="102.27" viewBox="0 0 856.26 102.27">
    <g>
        <g>
            <path d="M311.76 84.67q-6.285 6.15-12.77 13.52t-12.56 15.29q-6.075 7.92-11.4 16.18a164.524 164.524 0 0 0-9.28 16.25 107.061 107.061 0 0 0-6.28 15.36 45.594 45.594 0 0 0-2.32 13.65q0 3.69 1.5 5.19a4.562 4.562 0 0 0 3.28 1.5q4.785 0 10.1-3.55a70.674 70.674 0 0 0 10.65-8.87q5.325-5.325 10.38-11.47t9.15-11.33l.96.96q-4.65 5.865-9.22 11.4t-9.9 10.99q-2.73 2.865-5.8 5.53a40.513 40.513 0 0 1-6.55 4.64 37.464 37.464 0 0 1-7.44 3.21 28.878 28.878 0 0 1-8.6 1.23q-7.245 0-11.47-3.41t-4.23-10.51a36.179 36.179 0 0 1 .89-8.05 59.333 59.333 0 0 1 2.32-7.78c.96-2.55 2.02-5.07 3.21-7.58s2.37-4.89 3.55-7.17h-18.29q-6.285 6.69-13.38 14.33a150.18 150.18 0 0 1-15.02 14.13 84.192 84.192 0 0 1-16.66 10.72 41.48 41.48 0 0 1-18.29 4.23q-10.245 0-15.84-4.57a14.553 14.553 0 0 1-5.6-11.81 12.534 12.534 0 0 1 .55-3.62 10.2 10.2 0 0 1 1.77-3.41 9.929 9.929 0 0 1 3.07-2.59 9.049 9.049 0 0 1 4.44-1.02 9.329 9.329 0 0 1 5.32 1.77q2.595 1.77 2.59 6.14a6.229 6.229 0 0 1-2.12 5.05 6.835 6.835 0 0 1-4.44 1.77 7.722 7.722 0 0 0 3.96 6.55 17.66 17.66 0 0 0 9.15 2.18 35.976 35.976 0 0 0 16.38-4.23 90.2 90.2 0 0 0 16.11-10.58 167.2 167.2 0 0 0 14.81-13.65q7.035-7.3 12.49-13.45 2.73-3 7.03-7.65t9.97-10.03q5.67-5.385 12.56-11.06a167.97 167.97 0 0 1 14.74-10.79 135.022 135.022 0 0 1 16.66-9.22 92.306 92.306 0 0 1 18.36-6.28zm-61.03 53.52a144.075 144.075 0 0 1 16.45-23.48 263.569 263.569 0 0 1 20-20.89l-.27-.27a96.961 96.961 0 0 0-14.95 8.87 179.917 179.917 0 0 0-14.33 11.4q-6.9 6.075-13.17 12.42-6.285 6.345-11.6 11.95h17.87z" transform="translate(-146.85 -82.08)"/>
            <path d="M324.45 131.91l-4.78 7.37q-6.555 9.825-10.51 16.04t-6.14 10.1a36.55 36.55 0 0 0-2.87 6.01 12.242 12.242 0 0 0-.68 3.75 4.047 4.047 0 0 0 1.02 2.87 3.469 3.469 0 0 0 2.66 1.09q2.73 0 7.03-3.07a57.17 57.17 0 0 0 9.42-8.94 148.544 148.544 0 0 0 10.85-14.34 192.334 192.334 0 0 0 11.33-19.25l19.8-.55q-1.23 2.055-3.48 5.46t-5.05 7.44q-2.8 4.035-5.73 8.53t-5.32 8.67a69.508 69.508 0 0 0-3.89 7.78 16.344 16.344 0 0 0-1.5 5.94 3.483 3.483 0 0 0 .82 2.66 3.1 3.1 0 0 0 2.18.75 10.635 10.635 0 0 0 5.39-1.91 50.093 50.093 0 0 0 6.55-4.98c2.32-2.04 4.69-4.35 7.1-6.89s4.69-5.1 6.83-7.65 4.12-4.96 5.94-7.24 3.28-4.14 4.37-5.6l1.23 1.09q-2.325 2.73-5.32 6.48t-6.49 7.85q-3.48 4.095-7.37 8.12a72.2 72.2 0 0 1-7.99 7.17 46.332 46.332 0 0 1-8.26 5.12 19.127 19.127 0 0 1-8.26 1.98 12.856 12.856 0 0 1-5.19-.96 9.48 9.48 0 0 1-3.55-2.59 11.2 11.2 0 0 1-2.05-3.75 13.666 13.666 0 0 1-.27-7.58 25.95 25.95 0 0 1 .82-2.73l-.27-.27q-3 3.42-6.14 6.62a55.176 55.176 0 0 1-6.55 5.73 33.934 33.934 0 0 1-6.96 4.03 18.453 18.453 0 0 1-7.24 1.5c-3.82 0-6.65-1.12-8.46-3.34a13.046 13.046 0 0 1-2.73-8.53 18.911 18.911 0 0 1 1.23-6.21 65.241 65.241 0 0 1 3.14-7.3q1.9-3.825 4.3-7.78t4.57-7.44c1.45-2.32 2.8-4.41 4.03-6.28s2.16-3.34 2.8-4.44z" transform="translate(-146.85 -82.08)"/>
            <path d="M464.53 85.76q-11.475 19.11-19.73 32.83t-13.99 23.35q-5.73 9.63-9.15 15.7t-5.26 9.76a41.533 41.533 0 0 0-2.46 5.67 11.922 11.922 0 0 0-.61 3.48 3.873 3.873 0 0 0 .89 2.66 3.513 3.513 0 0 0 2.8 1.02q2.325 0 6.55-2.73a52.937 52.937 0 0 0 8.6-7.1 123.88 123.88 0 0 0 11.81-13.52q4.98-6.69 7.71-10.51l1.23.68q-3.15 4.5-8.53 11.67a127.925 127.925 0 0 1-12.63 14.27 46.549 46.549 0 0 1-10.79 8.26 21.9 21.9 0 0 1-10.1 2.53 10.944 10.944 0 0 1-8.4-3.28 11.5 11.5 0 0 1-3.07-8.19 9.343 9.343 0 0 1 .68-3.28l-.27-.27a52.685 52.685 0 0 1-10.99 10.58 24.569 24.569 0 0 1-14.68 4.44q-6.42 0-9.56-4.23a16.278 16.278 0 0 1-3.14-9.97 30.057 30.057 0 0 1 3.89-14.88 43.723 43.723 0 0 1 10.03-12.15 49.221 49.221 0 0 1 13.72-8.19 40.382 40.382 0 0 1 14.95-3 9.927 9.927 0 0 1 7.1 2.59 13.046 13.046 0 0 1 3.69 6.55l30.04-53.38zm-53.8 54.2a9.681 9.681 0 0 0-1.16-5.05c-.77-1.27-2.21-1.91-4.3-1.91q-4.1 0-8.67 4.1a51 51 0 0 0-8.46 9.97 65.351 65.351 0 0 0-6.42 12.36 31.707 31.707 0 0 0-2.53 11.26 10.536 10.536 0 0 0 1.09 5.12 3.874 3.874 0 0 0 3.69 1.98 11.883 11.883 0 0 0 6.48-2.05 30.492 30.492 0 0 0 6.21-5.39 48.666 48.666 0 0 0 5.53-7.58 89.877 89.877 0 0 0 4.44-8.4 57.181 57.181 0 0 0 3-7.99 23.771 23.771 0 0 0 1.1-6.42z" transform="translate(-146.85 -82.08)"/>
            <path d="M427.25 182.15l27.58-48.6 19.66-.55-20.89 30.85.27.27a132.478 132.478 0 0 1 13.99-17.34q6.48-6.555 11.4-8.6a35.35 35.35 0 0 1 3.41-3.69 10.925 10.925 0 0 1 3.89-2.18 27.5 27.5 0 0 1 6.42-1.16c2.68-.23 6.35-.43 10.99-.61a45.492 45.492 0 0 0-3.28 3.69 37.469 37.469 0 0 0-3 4.37 28.436 28.436 0 0 0-2.25 4.78 14.076 14.076 0 0 0-.89 4.78 10.4 10.4 0 0 0 1.43 5.32 4.9 4.9 0 0 0 4.57 2.46 10.111 10.111 0 0 0 4.1-.89 19.777 19.777 0 0 0 3.96-2.32 30.253 30.253 0 0 0 3.62-3.21q1.71-1.77 3.07-3.41l.96.82q-.96 1.095-2.73 3.21a23.769 23.769 0 0 1-4.71 4.16 31.517 31.517 0 0 1-7.24 3.62 30.054 30.054 0 0 1-10.31 1.57 17.075 17.075 0 0 1-6.01-1.02 14.41 14.41 0 0 1-4.57-2.66 11.865 11.865 0 0 1-2.87-3.82 10.837 10.837 0 0 1-1.02-4.64 15.366 15.366 0 0 1 1.09-6.42v-.27a37.534 37.534 0 0 0-8.94 7.24 122.947 122.947 0 0 0-9.42 11.13q-4.575 6.075-8.33 12.15a105.618 105.618 0 0 0-5.67 10.17z" transform="translate(-146.85 -82.08)"/>
            <path d="M577.43 133c-1 1.46-2.3 3.32-3.89 5.6s-3.3 4.73-5.12 7.37-3.64 5.39-5.46 8.26-3.48 5.67-4.98 8.4a72.763 72.763 0 0 0-3.69 7.65 16.564 16.564 0 0 0-1.43 6.01q0 3.96 3.14 3.96 2.865 0 6.76-2.73a68.636 68.636 0 0 0 8.53-7.3 139.958 139.958 0 0 0 9.69-10.72q5.055-6.15 10.24-12.97l.82.55q-5.46 6.96-10.65 13.58a127.81 127.81 0 0 1-10.31 11.74 56.224 56.224 0 0 1-10.24 8.26 19.767 19.767 0 0 1-10.44 3.14c-3.1 0-5.46-.5-7.1-1.5a9.477 9.477 0 0 1-3.62-3.75 12.574 12.574 0 0 1-1.37-4.71c-.14-1.64-.21-3.09-.21-4.37l-.41-.27q-2.19 2.595-4.71 5.19a39.642 39.642 0 0 1-5.53 4.71 30.006 30.006 0 0 1-6.28 3.41 18.837 18.837 0 0 1-6.96 1.3q-6.555 0-9.9-3.89t-3.34-12.49a28.882 28.882 0 0 1 3-12.36 39.013 39.013 0 0 1 8.53-11.6 46.638 46.638 0 0 1 13.17-8.67 40.8 40.8 0 0 1 16.79-3.41q5.325 0 8.12 2.66a12.4 12.4 0 0 1 3.62 6.62h.27l3.55-7.1zm-54.2 44.78q2.865 0 7.37-3.69a55.95 55.95 0 0 0 8.87-9.42 67.973 67.973 0 0 0 7.51-12.49 30.707 30.707 0 0 0 3.14-12.9 5.848 5.848 0 0 0-1.84-4.71 6.29 6.29 0 0 0-4.16-1.57 10.607 10.607 0 0 0-5.8 1.91 27.87 27.87 0 0 0-5.73 5.12 56.245 56.245 0 0 0-5.32 7.24 72.656 72.656 0 0 0-4.44 8.19 50.615 50.615 0 0 0-3 8.26 28.41 28.41 0 0 0-1.09 7.24 12.183 12.183 0 0 0 .89 4.57 3.463 3.463 0 0 0 3.6 2.25z" transform="translate(-146.85 -82.08)"/>
            <path d="M667.67 182.56a89.263 89.263 0 0 0 7.03-15.15q2.94-8.19 6.01-16.86t6.83-17.41a108.556 108.556 0 0 1 9.21-17 88.09 88.09 0 0 1 13.31-15.63 81.717 81.717 0 0 1 19.18-13.11l-.27-.27a79.8 79.8 0 0 0-20.34 11.2 124.837 124.837 0 0 0-16.31 14.74 157.656 157.656 0 0 0-12.42 15.15q-5.25 7.365-8.81 12.42-6.69 9.555-12.63 17.41a102.364 102.364 0 0 1-12.01 13.45 49.4 49.4 0 0 1-12.76 8.67 35.877 35.877 0 0 1-15.15 3.07 23.584 23.584 0 0 1-7.24-1.09 19.134 19.134 0 0 1-6.08-3.21 15.125 15.125 0 0 1-5.8-12.36 11.1 11.1 0 0 1 2.59-7.24 9.08 9.08 0 0 1 12.77-.96 7.752 7.752 0 0 1 2.39 6.01 7.91 7.91 0 0 1-1.64 4.98 6.157 6.157 0 0 1-4.5 2.39c.36 3.1 1.41 5.32 3.14 6.69a10.667 10.667 0 0 0 6.83 2.05 28.376 28.376 0 0 0 14.47-3.96 62.921 62.921 0 0 0 13.45-10.79 159.567 159.567 0 0 0 13.45-16.04q6.825-9.21 14.34-19.73a194.666 194.666 0 0 1 12.49-15.84 116.209 116.209 0 0 1 13.93-13.45 105.356 105.356 0 0 1 16.04-10.79 94.09 94.09 0 0 1 18.84-7.71l1.09 1.64a41.429 41.429 0 0 0-13.04 9.9 69.064 69.064 0 0 0-8.87 13.11 132.844 132.844 0 0 0-6.76 15.22q-3 8.055-6.55 16.52a165.809 165.809 0 0 1-8.26 16.86 85.058 85.058 0 0 1-12.08 16.31l.27.27q5.19-4.635 9.69-9.15t9.56-10.31q5.055-5.8 11.13-13.52t14.13-18.5a142.975 142.975 0 0 1 12.63-14.81 83.893 83.893 0 0 1 14.13-11.67 67.619 67.619 0 0 1 15.97-7.71 57.2 57.2 0 0 1 18.02-2.8 23.93 23.93 0 0 1 6.96.68 2.428 2.428 0 0 1 1.91 2.32c0 .55-.39 1.05-1.16 1.5a5.97 5.97 0 0 1-3.07.68 22.186 22.186 0 0 1-3.82-.27c-1-.18-2-.36-3-.55a27.037 27.037 0 0 0-2.66-.55 20.64 20.64 0 0 0-3.21-.27 9.486 9.486 0 0 0-5.32 2.18 30.432 30.432 0 0 0-6.14 6.35 80.765 80.765 0 0 0-6.35 10.1 119.919 119.919 0 0 0-6.08 13.31q-4.5 11.88-8.81 21.37a96.834 96.834 0 0 1-9.76 17 63.819 63.819 0 0 1-12.83 13.17 75.529 75.529 0 0 1-17.88 9.9v.27h.27a95.53 95.53 0 0 0 15.56-1.3 56.947 56.947 0 0 0 14.75-4.44 50.647 50.647 0 0 0 14.2-10.03q6.96-6.765 14.33-19.18l1.23.41a111.1 111.1 0 0 1-11.88 16.93 53.7 53.7 0 0 1-12.7 10.79 50.166 50.166 0 0 1-10.44 4.71 67.05 67.05 0 0 1-10.51 2.46 83.394 83.394 0 0 1-9.42.89q-4.3.135-7.03.14a14.363 14.363 0 0 0-2.39.2c-.77.14-1.59.27-2.46.41s-1.84.25-2.94.34-2.46.14-4.1.14q-4.23 0-4.23-2.18 0-2.46 3.55-2.46a15.526 15.526 0 0 1 2.73.27c1 .18 2 .41 3 .68s1.96.5 2.87.68a12.244 12.244 0 0 0 2.32.27q3 0 5.73-3.14a44.254 44.254 0 0 0 5.53-8.53q2.79-5.385 5.8-12.49t6.69-14.88q3.69-7.785 8.19-15.84a122.284 122.284 0 0 1 10.17-15.36 94.208 94.208 0 0 1 12.76-13.45 61.885 61.885 0 0 1 15.84-9.97l-.27-.27A53.519 53.519 0 0 0 761.42 92a84.084 84.084 0 0 0-12.42 8.67 107.367 107.367 0 0 0-11.47 11.26q-5.535 6.285-10.72 13.38t-11.88 15.7q-6.69 8.595-14.2 16.79a170.766 170.766 0 0 1-15.5 14.95 64.079 64.079 0 0 1-15.91 10.17z" transform="translate(-146.85 -82.08)"/>
            <path d="M789.86 133q-4.365 6.96-8.6 13.52t-7.51 12.22q-3.27 5.67-5.26 10.03a18.178 18.178 0 0 0-1.98 6.96 6.9 6.9 0 0 0 .68 3.21 2.524 2.524 0 0 0 2.46 1.3 11.487 11.487 0 0 0 5.94-1.98 46.058 46.058 0 0 0 6.62-5.05 85.409 85.409 0 0 0 6.83-6.96q3.405-3.885 6.42-7.65t5.39-7.1q2.385-3.345 3.89-5.39l1.09.41q-3.27 4.65-8.19 11.26a123.713 123.713 0 0 1-11.06 12.9 65.924 65.924 0 0 1-11.6 9.76 21.872 21.872 0 0 1-11.88 3.34q-5.595 0-8.46-3.21t-2.87-8.94q0-6.15 5.26-15.36t13.31-22.73zm-6.96-21.3a9.56 9.56 0 1 1 2.8 6.76 9.2 9.2 0 0 1-2.8-6.76z" transform="translate(-146.85 -82.08)"/>
            <path d="M855.26 85.76q-13.65 22.665-23.35 38.36T816 150.4q-6.21 10.575-9.15 16.79t-2.94 9.9a2.978 2.978 0 0 0 .89 2.32 2.829 2.829 0 0 0 1.98.82q3.135 0 7.92-3.48a82.43 82.43 0 0 0 9.9-8.67q5.115-5.19 9.9-11.13a128.723 128.723 0 0 0 7.92-10.85l1.09.55q-.96 1.365-3.14 4.64c-1.46 2.18-3.28 4.67-5.46 7.44s-4.62 5.62-7.3 8.53a90.182 90.182 0 0 1-8.46 8.06 49.436 49.436 0 0 1-9.15 6.08 20.579 20.579 0 0 1-9.35 2.39q-5.73 0-8.6-2.87a9.812 9.812 0 0 1-2.87-7.24 23.053 23.053 0 0 1 .96-6.35 56.643 56.643 0 0 1 3.07-7.92q2.115-4.575 5.6-10.79t8.6-14.81q5.115-8.595 12.01-20.07t15.77-26.62z" transform="translate(-146.85 -82.08)"/>
            <path d="M893.21 85.76q-13.65 22.665-23.35 38.36t-15.91 26.28q-6.21 10.575-9.15 16.79t-2.94 9.9a2.978 2.978 0 0 0 .89 2.32 2.829 2.829 0 0 0 1.98.82q3.135 0 7.92-3.48a82.43 82.43 0 0 0 9.9-8.67q5.115-5.19 9.9-11.13a128.723 128.723 0 0 0 7.92-10.85l1.09.55q-.96 1.365-3.14 4.64c-1.46 2.18-3.28 4.67-5.46 7.44s-4.62 5.62-7.3 8.53a90.182 90.182 0 0 1-8.46 8.06 49.436 49.436 0 0 1-9.15 6.08 20.579 20.579 0 0 1-9.35 2.39q-5.73 0-8.6-2.87a9.812 9.812 0 0 1-2.87-7.24 23.053 23.053 0 0 1 .96-6.35 56.643 56.643 0 0 1 3.07-7.92q2.115-4.575 5.6-10.79t8.6-14.81q5.115-8.595 12.01-20.07t15.77-26.62z" transform="translate(-146.85 -82.08)"/>
            <path d="M940.45 147.06q-3.135 4.5-7.03 9.08t-8.81 9.35a81.972 81.972 0 0 1-18.29 13.65 42.139 42.139 0 0 1-19.8 4.64q-9.42 0-14.33-4.37t-4.92-12.7a24.96 24.96 0 0 1 4.1-13.65 43.629 43.629 0 0 1 10.31-11.19 55.188 55.188 0 0 1 13.52-7.65 38 38 0 0 1 13.86-2.87 24.134 24.134 0 0 1 10.79 2.12 7.169 7.169 0 0 1 4.23 6.89q0 4.785-4.64 8.33a46.186 46.186 0 0 1-10.99 6.08 96.1 96.1 0 0 1-12.77 4.1q-6.42 1.575-10.1 2.39c-.18.91-.32 1.82-.41 2.73s-.14 1.82-.14 2.73a21.346 21.346 0 0 0 .55 4.85 11.176 11.176 0 0 0 1.84 4.16 9.607 9.607 0 0 0 3.41 2.87 11.353 11.353 0 0 0 5.26 1.09q6.42 0 13.79-4.71a101.712 101.712 0 0 0 14.88-11.81 116.685 116.685 0 0 0 8.4-9.01q3.615-4.365 6.08-7.92zm-30.04-10.24c0-2.55-1.28-3.82-3.82-3.82q-3 0-6.48 3.07a39.749 39.749 0 0 0-6.42 7.37 67.78 67.78 0 0 0-5.12 8.81 30.413 30.413 0 0 0-2.73 7.51 37.615 37.615 0 0 0 10.31-3.75 35.4 35.4 0 0 0 7.78-5.67 22.777 22.777 0 0 0 4.85-6.69 16.3 16.3 0 0 0 1.63-6.83z" transform="translate(-146.85 -82.08)"/>
            <path d="M914.1 182.15l27.58-48.6 19.66-.55-20.89 30.85.27.27a132.475 132.475 0 0 1 13.99-17.34q6.48-6.555 11.4-8.6a35.354 35.354 0 0 1 3.41-3.69 10.925 10.925 0 0 1 3.89-2.18 27.5 27.5 0 0 1 6.42-1.16c2.68-.23 6.35-.43 10.99-.61a45.492 45.492 0 0 0-3.28 3.69 37.461 37.461 0 0 0-3 4.37 28.441 28.441 0 0 0-2.25 4.78 14.075 14.075 0 0 0-.89 4.78 10.4 10.4 0 0 0 1.43 5.32 4.9 4.9 0 0 0 4.57 2.46 10.111 10.111 0 0 0 4.1-.89 19.778 19.778 0 0 0 3.96-2.32 30.25 30.25 0 0 0 3.62-3.21q1.71-1.77 3.07-3.41l.96.82q-.96 1.095-2.73 3.21a23.769 23.769 0 0 1-4.71 4.16 31.517 31.517 0 0 1-7.24 3.62 30.054 30.054 0 0 1-10.31 1.57 17.075 17.075 0 0 1-6.01-1.02 14.3 14.3 0 0 1-4.57-2.66 11.865 11.865 0 0 1-2.87-3.82 10.837 10.837 0 0 1-1.02-4.64 15.365 15.365 0 0 1 1.09-6.42v-.27a37.534 37.534 0 0 0-8.94 7.24 122.947 122.947 0 0 0-9.42 11.13q-4.575 6.075-8.33 12.15a105.61 105.61 0 0 0-5.67 10.17z" transform="translate(-146.85 -82.08)"/>
        </g>
        <g>
            <g>
                <path d="M705.23 181.57a21.593 21.593 0 0 1-3.68 1.1c-.87.14-1.84.25-2.94.34s-2.46.14-4.1.14q-4.23 0-4.23-2.18 0-2.46 3.55-2.46a15.526 15.526 0 0 1 2.73.27c1 .18 2 .41 3 .68s1.96.5 2.87.68a12.244 12.244 0 0 0 2.32.27q3 0 5.73-3.14a44.254 44.254 0 0 0 5.53-8.53q2.79-5.385 5.8-12.49t6.69-14.88q3.69-7.785 8.19-15.84a122.284 122.284 0 0 1 10.17-15.36 93.725 93.725 0 0 1 12.77-13.45 61.885 61.885 0 0 1 15.84-9.97l-.27-.27a53.519 53.519 0 0 0-13.58 5.46 84.084 84.084 0 0 0-12.42 8.67 107.367 107.367 0 0 0-11.47 11.26q-5.535 6.285-10.72 13.38t-11.88 15.7q-6.69 8.595-14.2 16.79a170.766 170.766 0 0 1-15.5 14.95 64.033 64.033 0 0 1-15.9 10.17l-1.64-.41a89.263 89.263 0 0 0 7.03-15.15q2.94-8.19 6.01-16.86t6.83-17.41a107.8 107.8 0 0 1 9.22-17 88.09 88.09 0 0 1 13.31-15.63 81.717 81.717 0 0 1 19.18-13.11l-.27-.27a79.8 79.8 0 0 0-20.34 11.2 124.837 124.837 0 0 0-16.31 14.74 157.656 157.656 0 0 0-12.42 15.15q-5.25 7.365-8.81 12.42-6.69 9.555-12.63 17.41a102.364 102.364 0 0 1-12.01 13.45 49.276 49.276 0 0 1-12.77 8.67 35.877 35.877 0 0 1-15.15 3.07 23.584 23.584 0 0 1-7.24-1.09 19.134 19.134 0 0 1-6.08-3.21 15.125 15.125 0 0 1-5.8-12.36 11.1 11.1 0 0 1 2.59-7.24 9.08 9.08 0 0 1 12.77-.96 7.752 7.752 0 0 1 2.39 6.01 7.91 7.91 0 0 1-1.64 4.98 6.159 6.159 0 0 1-4.51 2.39c.36 3.1 1.41 5.32 3.14 6.69a10.667 10.667 0 0 0 6.83 2.05 28.376 28.376 0 0 0 14.47-3.96 62.921 62.921 0 0 0 13.45-10.79 159.567 159.567 0 0 0 13.45-16.04q6.825-9.21 14.33-19.73a194.666 194.666 0 0 1 12.49-15.84 116.209 116.209 0 0 1 13.93-13.45 105.356 105.356 0 0 1 16.04-10.79 94.09 94.09 0 0 1 18.84-7.71l1.09 1.64a41.429 41.429 0 0 0-13.04 9.9 69.064 69.064 0 0 0-8.87 13.11 132.844 132.844 0 0 0-6.76 15.22q-3 8.055-6.55 16.52a165.809 165.809 0 0 1-8.26 16.86 85.058 85.058 0 0 1-12.08 16.31l.27.27q5.19-4.635 9.69-9.15t9.56-10.31q5.055-5.8 11.13-13.52t14.13-18.5a142.975 142.975 0 0 1 12.63-14.81 83.893 83.893 0 0 1 14.13-11.67 67.619 67.619 0 0 1 15.97-7.71 57.2 57.2 0 0 1 18.02-2.8 23.93 23.93 0 0 1 6.96.68 2.428 2.428 0 0 1 1.91 2.32c0 .55-.39 1.05-1.16 1.5a5.97 5.97 0 0 1-3.07.68 22.186 22.186 0 0 1-3.82-.27c-1-.18-2-.36-3-.55a27.037 27.037 0 0 0-2.66-.55 20.64 20.64 0 0 0-3.21-.27 9.486 9.486 0 0 0-5.32 2.18 30.432 30.432 0 0 0-6.14 6.35 80.765 80.765 0 0 0-6.35 10.1 119.919 119.919 0 0 0-6.08 13.31q-4.5 11.88-8.81 21.37a96.834 96.834 0 0 1-9.76 17 63.819 63.819 0 0 1-12.83 13.17 75.529 75.529 0 0 1-17.88 9.9" transform="translate(-146.85 -82.08)"/>
            </g>
            <path fill="#ec0b8c" d="M758.05 85.43c-4.35-3.77-11.1-4.17-19.01-1.79a41.655 41.655 0 0 0-12.53 9.57 69.6 69.6 0 0 0-9.05 13.2 131.031 131.031 0 0 0-6.9 15.34q-3.075 8.115-6.69 16.65a166.427 166.427 0 0 1-8.43 16.99 82.464 82.464 0 0 1-8.83 12.53 5.748 5.748 0 1 0 1.09 1.05c2.11-1.93 4.15-3.86 6.04-5.72 3.06-3.02 6.23-6.43 9.66-10.32s7.33-8.36 11.46-13.54 8.43-11.87 13.91-19.12a146.156 146.156 0 0 1 12.87-14.92 86.157 86.157 0 0 1 14.4-11.75c1.79-1.16 3.62-2.22 5.49-3.2a13.076 13.076 0 0 0-3.48-4.97z" transform="translate(-146.85 -82.08)"/>
        </g>
    </g>
</svg>
