<svg id="Layer_1" data-name="Layer 1" xmlns="http://www.w3.org/2000/svg" viewBox="0 0 376.32 83.04"><defs><style>.cls-1{fill:#ec008c;}.cls-2{font-size:60px;font-family:SnellRoundhand-Black, Snell Roundhand;font-weight:800;}.cls-3{fill:#ec0b8c;}</style></defs><path class="cls-1" d="M342.83,61c-5.51-4-13.44-1.65-16.3-1.46-.35,0-3.44,3.54-5.4,4.26l-1.66,1.77c-1.57.59-2.55,3.26-3.32,5.71a18.26,18.26,0,0,1-1.67,4.46c-1,1.63-1.75,5.8-2.59,7.71s-1.74,3.8-2.68,5.7a54.21,54.21,0,0,1-3.14,5.5A23.56,23.56,0,0,1,302,99.38l.08.09A28.92,28.92,0,0,0,307.21,95c1.55-1.72,2.72-2,4.16-3.89s3.51-4.14,4.88-6A48.85,48.85,0,0,1,320.19,80a31.17,31.17,0,0,0,3.33-4.68,29.23,29.23,0,0,1,3.11-3.53c1.43-1.62,8.9-8.19,10.07-8.51Z" transform="translate(-67.08 -51.03)"/><text class="cls-2" transform="translate(5.52 52.08)">Audra Miller</text><circle class="cls-3" cx="236.68" cy="46" r="3.03"/></svg>