<svg xmlns="http://www.w3.org/2000/svg" xmlns:xlink="http://www.w3.org/1999/xlink" width="1270.055" height="238.105" viewBox="0 0 1270.055 238.105">
  <defs>
    <clipPath id="clip-path">
      <rect id="Rectangle_288" data-name="Rectangle 288" width="1270.055" height="238.105" fill="none"/>
    </clipPath>
  </defs>
  <g id="Group_2109" data-name="Group 2109" transform="translate(-61.945 -1178)">
    <g id="Group_2108" data-name="Group 2108" transform="translate(61.945 1178)">
      <g id="Group_2107" data-name="Group 2107" transform="translate(0 0)" clip-path="url(#clip-path)">
        <path id="Path_26783" data-name="Path 26783" d="M127.517,43.636c0,7.7-5.474,12.219-14.611,12.219H101.383V68.6H100.32V31.417h12.586c9.136,0,14.611,4.518,14.611,12.219m-1.063,0c0-7.122-4.73-11.209-13.442-11.209H101.383V54.84h11.629c8.711,0,13.442-4.087,13.442-11.2" transform="translate(432.878 135.563)" fill="#bb1e79"/>
        <path id="Path_26784" data-name="Path 26784" d="M118.786,33.216v1.063h-.319C111.882,34.279,108,38.8,108,46.073V60.838h-1.063V33.375H108v7.117c1.541-4.619,5.262-7.276,10.784-7.276" transform="translate(461.439 143.326)" fill="#bb1e79"/>
        <path id="Path_26785" data-name="Path 26785" d="M110.01,47.077c0-8.127,5.682-13.861,13.335-13.861s13.33,5.735,13.33,13.861S130.988,61,123.345,61,110.01,55.2,110.01,47.077m25.6,0c0-7.6-5.251-12.852-12.267-12.852s-12.267,5.257-12.267,12.852,5.256,12.91,12.267,12.91,12.267-5.31,12.267-12.91" transform="translate(474.69 143.326)" fill="#bb1e79"/>
        <path id="Path_26786" data-name="Path 26786" d="M142.775,31V70.413h-1.063V62.02a12.712,12.712,0,0,1-12.272,8.552c-7.542,0-13.33-5.793-13.33-13.92s5.788-13.861,13.33-13.861a12.728,12.728,0,0,1,12.272,8.5V31Zm-1.063,25.655c0-7.6-5.256-12.852-12.272-12.852s-12.267,5.257-12.267,12.852,5.257,12.91,12.267,12.91,12.272-5.31,12.272-12.91" transform="translate(501.011 133.751)" fill="#bb1e79"/>
        <path id="Path_26787" data-name="Path 26787" d="M146.74,33.246V60.708h-1.063V53.432c-1.595,4.566-5.469,7.436-11.05,7.436-6.957,0-11.257-3.986-11.257-11.422v-16.2h1.058v16.2c0,6.8,3.72,10.412,10.146,10.412,6.909,0,11.1-4.73,11.1-11.682V33.246Z" transform="translate(532.338 143.455)" fill="#bb1e79"/>
        <path id="Path_26788" data-name="Path 26788" d="M129.46,47.077c0-8.18,5.682-13.861,13.495-13.861a12.279,12.279,0,0,1,9.881,4.459l-.744.8a11.026,11.026,0,0,0-9.136-4.247c-7.175,0-12.432,5.257-12.432,12.852,0,7.648,5.256,12.91,12.432,12.91a11.026,11.026,0,0,0,9.136-4.247l.744.792A12.268,12.268,0,0,1,142.955,61c-7.813,0-13.495-5.74-13.495-13.92" transform="translate(558.616 143.326)" fill="#bb1e79"/>
        <path id="Path_26789" data-name="Path 26789" d="M151.966,63.777a7.609,7.609,0,0,1-5.368,1.967c-4.353,0-6.638-2.711-6.638-6.745V39.126h-5.31v-1h5.31V32.116h1.063v6.006h9.3v1h-9.3V58.733c0,3.875,1.913,6,5.629,6a6.574,6.574,0,0,0,4.571-1.7Z" transform="translate(581.011 138.579)" fill="#bb1e79"/>
        <rect id="Rectangle_284" data-name="Rectangle 284" width="1.063" height="49.716" transform="translate(755.411 164.748)" fill="#bb1e79"/>
        <path id="Path_26790" data-name="Path 26790" d="M147.429,53.034V31.418h1.063V52.981c0,9.934,4.831,14.77,13.277,14.77s13.282-4.837,13.282-14.77V31.418h1.063V53.034c0,10.518-5.474,15.727-14.345,15.727s-14.34-5.209-14.34-15.727" transform="translate(636.152 135.567)" fill="#bb1e79"/>
        <path id="Path_26791" data-name="Path 26791" d="M183.254,68.6,169.387,50.169,155.525,68.6H154.25l14.5-19.23L155.313,31.417h1.329l12.8,17.157,12.8-17.157h1.276L170.078,49.371l14.5,19.23Z" transform="translate(665.584 135.564)" fill="#bb1e79"/>
        <path id="Path_26792" data-name="Path 26792" d="M177.738,30H178.8L161.273,80.033H160.21Z" transform="translate(691.3 129.441)" fill="#bb1e79"/>
        <path id="Path_26793" data-name="Path 26793" d="M164.679,53.034V31.418h1.063V52.981c0,9.934,4.831,14.77,13.277,14.77S192.3,62.915,192.3,52.981V31.418h1.063V53.034c0,10.518-5.474,15.727-14.345,15.727s-14.34-5.209-14.34-15.727" transform="translate(710.585 135.567)" fill="#bb1e79"/>
        <rect id="Rectangle_285" data-name="Rectangle 285" width="1.063" height="37.184" transform="translate(917.784 166.98)" fill="#bb1e79"/>
        <path id="Path_26794" data-name="Path 26794" d="M178.038,31.417h14.079c11.741,0,19.6,7.866,19.6,18.592S203.858,68.6,192.117,68.6H178.038ZM192.011,67.6c11.369,0,18.645-7.436,18.645-17.587s-7.276-17.582-18.645-17.582H179.1V67.6Z" transform="translate(768.229 135.563)" fill="#bb1e79"/>
        <path id="Path_26795" data-name="Path 26795" d="M210.957,47.077H186.519c0,7.6,5.421,12.91,12.7,12.91a11.505,11.505,0,0,0,9.349-4.247l.744.744A12.89,12.89,0,0,1,199.216,61c-7.919,0-13.707-5.793-13.707-13.925s5.421-13.861,12.7-13.861c7.223,0,12.751,5.634,12.751,13.6Zm-24.438-1h23.428c-.372-6.8-5.262-11.847-11.741-11.847s-11.316,5.049-11.688,11.847" transform="translate(800.466 143.326)" fill="#bb1e79"/>
        <path id="Path_26796" data-name="Path 26796" d="M191.159,57.229l.638-.85a14.9,14.9,0,0,0,10.093,3.614c6.532,0,9.137-2.5,9.137-6.112,0-9.184-18.8-2.923-18.8-13.6,0-3.667,2.923-7.069,9.721-7.069a15.243,15.243,0,0,1,9.083,2.822l-.638.845a13.835,13.835,0,0,0-8.445-2.652c-6.054,0-8.6,2.652-8.6,6.054,0,9.455,18.751,3.242,18.751,13.6,0,4.146-3.348,7.122-10.2,7.122-4.465,0-8.658-1.594-10.731-3.774" transform="translate(824.845 143.326)" fill="#bb1e79"/>
        <path id="Path_26797" data-name="Path 26797" d="M196.458,32.679a1.382,1.382,0,1,1,1.387,1.382,1.408,1.408,0,0,1-1.387-1.382m.856,8.977h1.063V69.118h-1.063Z" transform="translate(847.71 135.045)" fill="#bb1e79"/>
        <path id="Path_26798" data-name="Path 26798" d="M225.493,33.375V58.4c0,8.865-4.2,12.9-12.7,12.9-4.991,0-9.562-1.7-12.166-4.566l.749-.744A15.971,15.971,0,0,0,212.8,70.3c7.914,0,11.634-3.614,11.634-11.741V51.648A12.833,12.833,0,0,1,212,59.94c-7.7,0-13.489-5.581-13.489-13.388S204.3,33.216,212,33.216c5.9,0,10.572,3.242,12.432,8.18v-8.02ZM224.43,46.551c0-7.276-5.257-12.32-12.432-12.32s-12.426,5.044-12.426,12.32S204.828,58.93,212,58.93s12.432-5.1,12.432-12.379" transform="translate(856.56 143.326)" fill="#bb1e79"/>
        <path id="Path_26799" data-name="Path 26799" d="M229.472,44.638v16.2h-1.063v-16.2c0-6.8-3.667-10.412-9.881-10.412-7.223,0-11.581,4.725-11.581,11.682v14.93h-1.058V33.375h1.058V40.7c1.648-4.571,5.687-7.489,11.528-7.489,6.75,0,11,3.986,11,11.422" transform="translate(888.405 143.326)" fill="#bb1e79"/>
        <path id="Path_26800" data-name="Path 26800" d="M237.406,47.077H212.968c0,7.6,5.421,12.91,12.7,12.91a11.505,11.505,0,0,0,9.349-4.247l.744.744A12.89,12.89,0,0,1,225.665,61c-7.919,0-13.707-5.793-13.707-13.925s5.421-13.861,12.7-13.861c7.223,0,12.751,5.634,12.751,13.6Zm-24.438-1H236.4c-.372-6.8-5.262-11.847-11.741-11.847s-11.316,5.049-11.688,11.847" transform="translate(914.593 143.326)" fill="#bb1e79"/>
        <path id="Path_26801" data-name="Path 26801" d="M230.284,33.216v1.063h-.319c-6.585,0-10.46,4.518-10.46,11.794V60.838h-1.068V33.375h1.068v7.117c1.541-4.619,5.256-7.276,10.779-7.276" transform="translate(942.549 143.326)" fill="#bb1e79"/>
        <path id="Path_26802" data-name="Path 26802" d="M132.534,238.105H180.7L103.27,0H54.606Z" transform="translate(235.623 0)" fill="#811256"/>
        <path id="Path_26803" data-name="Path 26803" d="M82.814,238.105H34.644L140.848,0h48.664Z" transform="translate(149.49 0)" fill="#bb1e79"/>
        <path id="Path_26804" data-name="Path 26804" d="M61.516,71.524l-3.035-8.892L86.55,0" transform="translate(252.345 0.001)" fill="#500027"/>
        <path id="Path_26805" data-name="Path 26805" d="M97.91,238.105h48.17L68.646,0H19.982Z" transform="translate(86.223 0)" fill="#e22284"/>
        <path id="Path_26806" data-name="Path 26806" d="M37.9,120.872H2.381l83.131-77.1,54.532-16.6Z" transform="translate(10.274 117.233)" fill="#e22284"/>
        <path id="Path_26807" data-name="Path 26807" d="M48.17,238.105H0L106.2,0h48.664Z" transform="translate(0 0)" fill="#e75d9e"/>
        <path id="Path_26808" data-name="Path 26808" d="M26.893,71.524l-3.035-8.892L51.926,0" transform="translate(102.945 0.001)" fill="#811256"/>
        <path id="Path_26809" data-name="Path 26809" d="M18.806,82.406,9.064,91.452,34.815,33.987" transform="translate(39.109 146.652)" fill="#811256"/>
        <path id="Path_26810" data-name="Path 26810" d="M63.373,88.414,60.195,95.5,39.886,33.048" transform="translate(172.108 142.601)" fill="#811256"/>
        <path id="Path_26811" data-name="Path 26811" d="M169.026,71.112h-54.6l-12.5,26.92H98.991l41.457-89.3H143l41.462,89.3h-2.934Zm-1.148-2.424-26.15-56.514L115.574,68.688Z" transform="translate(427.143 37.669)" fill="#811256"/>
        <path id="Path_26812" data-name="Path 26812" d="M173.794,13.123V79.076h-2.551V61.6c-3.827,10.975-13.139,17.858-26.538,17.858-16.71,0-27.043-9.567-27.043-27.431V13.123h2.551V52.029c0,16.333,8.929,25.007,24.364,25.007,16.588,0,26.665-11.353,26.665-28.063V13.123Z" transform="translate(507.712 56.625)" fill="#811256"/>
        <path id="Path_26813" data-name="Path 26813" d="M196.314,7.722v94.66h-2.546V82.227c-4.465,12.5-15.69,20.537-29.472,20.537-18.113,0-32.017-13.9-32.017-33.426s13.9-33.3,32.017-33.3c13.782,0,25.007,8.042,29.472,20.415V7.722Zm-2.546,61.616c0-18.241-12.634-30.875-29.472-30.875S134.825,51.1,134.825,69.338s12.634,31,29.471,31,29.472-12.756,29.472-31" transform="translate(570.78 33.32)" fill="#811256"/>
        <path id="Path_26814" data-name="Path 26814" d="M178.3,13.05V15.6h-.765c-15.823,0-25.134,10.848-25.134,28.323V79.386h-2.551V13.433H152.4v17.1c3.7-11.1,12.634-17.481,25.9-17.481" transform="translate(646.581 56.31)" fill="#811256"/>
        <path id="Path_26815" data-name="Path 26815" d="M208.627,36.144V79.391h-2.551V65.355c-4.209,8.8-12.756,14.42-25.134,14.42-14.8,0-23.343-7.4-23.343-18.5,0-9.445,5.868-17.731,23.471-17.731h25.007V36.271c0-13.776-7.271-20.8-20.925-20.8a34.543,34.543,0,0,0-23.981,9.19l-1.786-1.786c6.25-6,15.69-9.827,25.645-9.827,15.307,0,23.6,8.042,23.6,23.094m-2.551,24.364V45.971H180.941c-14.924,0-20.792,6.373-20.792,15.174,0,9.95,7.654,16.205,20.792,16.205,12.756,0,20.8-6.123,25.134-16.843" transform="translate(680.031 56.31)" fill="#811256"/>
        <path id="Path_26816" data-name="Path 26816" d="M267.032,8.73v89.3h-2.551V14.215L223.784,85.4h-1.531l-40.7-70.934V98.032h-2.551V8.73h2.168l41.845,73.224L264.864,8.73Z" transform="translate(772.404 37.67)" fill="#811256"/>
        <path id="Path_26817" data-name="Path 26817" d="M201.134,11.759a3.317,3.317,0,1,1,3.317,3.317,3.377,3.377,0,0,1-3.317-3.317m2.041,21.563h2.551V99.275h-2.551Z" transform="translate(867.887 36.426)" fill="#811256"/>
        <rect id="Rectangle_286" data-name="Rectangle 286" width="2.551" height="94.66" transform="translate(1102.952 41.042)" fill="#811256"/>
        <rect id="Rectangle_287" data-name="Rectangle 287" width="2.551" height="94.66" transform="translate(1134.842 41.042)" fill="#811256"/>
        <path id="Path_26818" data-name="Path 26818" d="M279.16,46.348H220.478c0,18.246,13.011,31,30.492,31,8.8,0,17.221-3.317,22.45-10.21l1.786,1.791c-5.868,7.143-14.8,10.843-24.236,10.843-19.012,0-32.916-13.9-32.916-33.426s13.011-33.3,30.492-33.3c17.348,0,30.614,13.527,30.614,32.66Zm-58.683-2.424h56.259c-.893-16.328-12.628-28.451-28.191-28.451S221.37,27.6,220.478,43.925" transform="translate(940.897 56.31)" fill="#811256"/>
        <path id="Path_26819" data-name="Path 26819" d="M262.056,13.05V15.6h-.765c-15.817,0-25.134,10.848-25.134,28.323V79.386H233.6V13.433h2.551v17.1c3.7-11.1,12.634-17.481,25.9-17.481" transform="translate(1007.999 56.31)" fill="#811256"/>
        <line id="Line_2341" data-name="Line 2341" y2="229.724" transform="translate(467.231 4.932)" fill="#e22284"/>
      </g>
    </g>
    <line id="Line_2342" data-name="Line 2342" y2="220" transform="translate(526.5 1187.5)" fill="none" stroke="#bb1e79" stroke-width="1"/>
  </g>
</svg>
